HIERARCHY
ROOT Hips
{
	OFFSET	0.00	0.00	0.00
	CHANNELS 6 Xposition Yposition Zposition Zrotation Xrotation Yrotation
	JOINT LeftUpLeg
	{
		OFFSET	 0.126116	-0.014019	-0.065224
		CHANNELS 3 Zrotation Xrotation Yrotation
		JOINT LeftLeg
		{
			OFFSET	 0.000000	 0.000000	 0.569914
			CHANNELS 3 Zrotation Xrotation Yrotation
			JOINT LeftFoot
			{
				OFFSET	 0.000000	 0.000000	 0.544423
				CHANNELS 3 Zrotation Xrotation Yrotation
				JOINT LeftToeBase
				{
					OFFSET	 0.000000	 0.000000	 0.207117
					CHANNELS 3 Zrotation Xrotation Yrotation
					End Site
					{
						OFFSET	 0.000000	 0.000000	 0.207117
					}
				}
			}
		}
	}
	JOINT RightUpLeg
	{
		OFFSET	-0.124023	-0.008373	-0.065224
		CHANNELS 3 Zrotation Xrotation Yrotation
		JOINT RightLeg
		{
			OFFSET	 0.000000	 0.000000	 0.570047
			CHANNELS 3 Zrotation Xrotation Yrotation
			JOINT RightFoot
			{
				OFFSET	 0.000000	 0.000000	 0.544354
				CHANNELS 3 Zrotation Xrotation Yrotation
				JOINT RightToeBase
				{
					OFFSET	 0.000000	 0.000000	 0.207540
					CHANNELS 3 Zrotation Xrotation Yrotation
					End Site
					{
						OFFSET	 0.000000	 0.000000	 0.207540
					}
				}
			}
		}
	}
	JOINT Spine
	{
		OFFSET	 0.000184	-0.007763	 0.117403
		CHANNELS 3 Zrotation Xrotation Yrotation
		JOINT Spine1
		{
			OFFSET	 0.000000	 0.000000	 0.137269
			CHANNELS 3 Zrotation Xrotation Yrotation
			JOINT Spine2
			{
				OFFSET	 0.000000	 0.000000	 0.156879
				CHANNELS 3 Zrotation Xrotation Yrotation
				JOINT LeftShoulder
				{
					OFFSET	 0.080501	-0.002496	 0.160144
					CHANNELS 3 Zrotation Xrotation Yrotation
					JOINT LeftArm
					{
						OFFSET	 0.000000	 0.000000	 0.164363
						CHANNELS 3 Zrotation Xrotation Yrotation
						JOINT LeftForeArm
						{
							OFFSET	 0.000000	 0.000000	 0.364576
							CHANNELS 3 Zrotation Xrotation Yrotation
							JOINT LeftHand
							{
								OFFSET	 0.000000	 0.000000	 0.360812
								CHANNELS 3 Zrotation Xrotation Yrotation
								JOINT LeftHandIndex1
								{
									OFFSET	 0.000000	 0.000000	 0.086006
									CHANNELS 3 Zrotation Xrotation Yrotation
									JOINT LeftHandIndex2
									{
										OFFSET	 0.000000	 0.000000	 0.047237
										CHANNELS 3 Zrotation Xrotation Yrotation
										JOINT LeftHandIndex3
										{
											OFFSET	-0.004284	-0.000551	 0.038165
											CHANNELS 3 Zrotation Xrotation Yrotation
											End Site
											{
												OFFSET	-0.004284	-0.000551	 0.038165
											}
										}
									}
								}
							}
						}
					}
				}
				JOINT Neck
				{
					OFFSET	 0.000000	 0.000000	 0.176489
					CHANNELS 3 Zrotation Xrotation Yrotation
					JOINT Head
					{
						OFFSET	 0.000000	-0.001747	 0.077940
						CHANNELS 3 Zrotation Xrotation Yrotation
						End Site
						{
							OFFSET	 0.000000	-0.001747	 0.077940
						}
					}
				}
				JOINT RightShoulder
				{
					OFFSET	-0.080363	 0.000306	 0.159706
					CHANNELS 3 Zrotation Xrotation Yrotation
					JOINT RightArm
					{
						OFFSET	 0.000000	 0.000000	 0.164196
						CHANNELS 3 Zrotation Xrotation Yrotation
						JOINT RightForeArm
						{
							OFFSET	 0.000000	 0.000000	 0.365611
							CHANNELS 3 Zrotation Xrotation Yrotation
							JOINT RightHand
							{
								OFFSET	 0.000000	 0.000000	 0.360648
								CHANNELS 3 Zrotation Xrotation Yrotation
								JOINT RightHandIndex1
								{
									OFFSET	 0.000000	 0.000000	 0.069977
									CHANNELS 3 Zrotation Xrotation Yrotation
									JOINT RightHandIndex2
									{
										OFFSET	 0.000000	 0.000000	 0.052305
										CHANNELS 3 Zrotation Xrotation Yrotation
										JOINT RightHandIndex3
										{
											OFFSET	 0.009002	-0.000782	 0.042196
											CHANNELS 3 Zrotation Xrotation Yrotation
											End Site
											{
												OFFSET	 0.009002	-0.000782	 0.042196
											}
										}
									}
								}
							}
						}
					}
				}
			}
		}
	}
}
MOTION
Frames:    8
Frame Time: 0.03333334
-0.446451	-0.033188	 1.271722	-179.893100	-2.165149	 0.412823	 13.183670	 0.025048	 175.737700	-0.530230	-11.208740	-0.212222	-26.709840	 69.010270	 12.426020	-2.385833	 28.452760	 0.000004	 6.870005	 0.823659	-178.770900	-1.664308	-11.041560	-0.610972	 32.838940	 68.682420	-15.500680	 2.384659	 28.388700	-0.000001	-1.329205	 8.244011	-1.130695	 0.069771	-4.831662	 1.511158	 1.265642	 5.208620	-0.699213	-91.776180	 78.527400	-180.000000	-17.482490	-9.248057	-11.814670	 3.987264	-0.051026	-0.487572	-1.554353	-10.252290	-3.127357	-4.130319	 21.525730	 0.991547	-5.167930	 0.731704	 3.519349	-1.378229	 35.397820	-2.634230	-1.322089	-1.638464	 0.642952	-11.698610	-17.721740	-6.634952	 89.782090	 78.203830	-180.000000	 6.507001	-11.360120	 10.138870	-14.671970	-0.073556	 0.484836	-6.068529	 31.706650	 75.523370	 5.716227	 19.173190	-3.685159	 5.027444	 0.246877	-9.377972	-2.350882	 35.473990	 5.254307
-0.446953	-0.033210	 1.271454	-179.848000	-3.256754	 0.668657	 20.537630	 0.036381	 174.428600	-3.914347	-12.043080	-0.935682	-17.541800	 69.592390	 6.019308	-2.385833	 28.452760	 0.000004	 7.924740	 1.829756	-179.210800	 0.368677	-11.328240	-0.226705	 26.140700	 68.738200	-10.452360	 2.384659	 28.388700	-0.000001	-0.958189	 9.252984	-1.739061	 0.242581	-2.623705	 1.421889	 0.559117	 1.615867	 0.035626	-91.776180	 78.527380	-180.000000	-27.982630	-6.623686	-13.492880	 2.832701	-0.041688	-0.494918	-0.668058	-12.507450	-2.309222	-4.130319	 21.525730	 0.991547	-5.167930	 0.731704	 3.519349	-1.378229	 35.397820	-2.634230	-1.975267	-0.606881	 1.035247	-12.700850	-21.999400	-9.722460	 89.782030	 78.203890	-180.000000	 12.430470	-9.289918	 11.570610	-16.228440	-0.088252	 0.491187	-14.915050	 38.525160	 102.594300	 5.716227	 19.173190	-3.685159	 5.027444	 0.246877	-9.377972	-2.350882	 35.473990	 5.254307
-0.447487	-0.033340	 1.270873	-179.713200	-4.284357	 1.179207	 27.724050	-1.328638	 172.734300	-7.486712	-14.899920	-2.082235	-7.525801	 71.001910	-1.290631	-2.385833	 28.452760	 0.000004	 8.665460	 2.052470	-179.722900	 2.395838	-13.005000	 0.196515	 17.630900	 69.241540	-3.346128	 2.384659	 28.388700	-0.000001	-0.638486	 10.136050	-2.515156	 0.335069	-0.235971	 0.955887	-0.192091	-2.150024	 0.935157	-91.776250	 78.527380	-179.999900	-44.656440	-0.869773	-6.068907	 1.415476	-1.146103	-18.597890	-0.116113	-13.587890	-1.788261	-4.130319	 21.525730	 0.991547	-5.167930	 0.731704	 3.519349	-1.378229	 35.397820	-2.634230	-2.717625	 0.545698	 1.597867	-14.219970	-26.517040	-13.521570	 89.782080	 78.203890	-180.000000	 23.289310	-5.793968	 5.676283	-17.350840	-3.504032	 17.009230	-21.394280	 50.268590	 121.967500	 5.716227	 19.173190	-3.685159	 5.027444	 0.246877	-9.377972	-2.350882	 35.473990	 5.254307
-0.447861	-0.033627	 1.269962	-179.549400	-4.444335	 1.739258	 30.032330	-3.538847	 171.843800	-9.003088	-18.796460	-3.107647	-6.456186	 72.688600	-1.137465	-2.385833	 28.452760	 0.000004	 8.454123	 0.720111	-179.853400	 3.166726	-16.012450	 0.453628	 15.207900	 70.251820	-1.490560	 2.384659	 28.388700	-0.000001	-0.736939	 10.159610	-2.981944	 0.218526	 0.789206	 0.148239	-0.473819	-3.534065	 1.642708	-91.776170	 78.527380	-180.000000	-51.011800	 3.597293	 8.582907	-0.049635	-2.208734	-48.738020	-0.553405	-12.685190	-2.033736	-4.130319	 21.525730	 0.991547	-5.167930	 0.731704	 3.519349	-1.378229	 35.397820	-2.634230	-3.044228	 1.046915	 1.987858	-15.080330	-28.197580	-15.380940	 89.782160	 78.203890	 179.999900	 27.210060	-3.254098	-6.968384	-14.476700	-8.947231	 46.400320	-8.374487	 58.278790	 110.031500	 5.716227	 19.173190	-3.685159	 5.027444	 0.246877	-9.377972	-2.350882	 35.473990	 5.254307
-0.448240	-0.034031	 1.268760	-179.371300	-4.408807	 1.987940	 30.302260	-5.372803	 171.536000	-9.751801	-22.563070	-3.994006	-7.925808	 74.737140	 0.833884	-2.385833	 28.452760	 0.000004	 8.200312	-0.942374	-179.511900	 3.541003	-19.403400	 0.670777	 15.921200	 71.679910	-2.592324	 2.384659	 28.388700	-0.000001	-1.121578	 10.042030	-3.151633	-0.024914	 1.335729	-0.310720	-0.553731	-4.059103	 2.016475	-91.776080	 78.527380	 179.999900	-52.220260	 7.660679	 18.846570	-1.066841	-2.577526	-70.362980	-0.741835	-12.399190	-2.112374	-4.130319	 21.525730	 0.991547	-5.167930	 0.731704	 3.519349	-1.378229	 35.397820	-2.634230	-3.169563	 1.226320	 2.207702	-15.429080	-28.745080	-16.309040	 89.782100	 78.203850	 180.000000	 27.306210	 0.303800	-14.686650	-10.772450	-11.387520	 67.305770	 9.734191	 59.088060	 88.854720	 5.716227	 19.173190	-3.685159	 5.027444	 0.246877	-9.377972	-2.350882	 35.473990	 5.254307
-0.448785	-0.034719	 1.266795	-179.128200	-4.180189	 2.024299	 28.856700	-7.368296	 171.671100	-10.013450	-27.412070	-4.912515	-14.045190	 77.709520	 6.982014	-2.385833	 28.452760	 0.000004	 7.900954	-3.298748	-178.575200	 3.660912	-23.939390	 0.867983	 20.851380	 73.695610	-7.945657	 2.384659	 28.388700	-0.000001	-1.917113	 9.753357	-3.101424	-0.502857	 1.650125	-0.601873	-0.480939	-3.974833	 2.215595	-91.776220	 78.527380	-180.000000	-47.678380	 14.114390	 28.510480	-2.223175	-2.884353	-94.698390	-0.588166	-12.612260	-2.106440	-4.130319	 21.525730	 0.991547	-5.167930	 0.731704	 3.519349	-1.378229	 35.397820	-2.634230	-3.142498	 1.162250	 2.332122	-15.358510	-28.425260	-16.606910	 89.782160	 78.203890	 180.000000	 23.281060	 7.091060	-20.161510	-5.988630	-12.008530	 90.306140	 28.298500	 50.040890	 58.656120	 5.716227	 19.173190	-3.685159	 5.027444	 0.246877	-9.377972	-2.350882	 35.473990	 5.254307
-0.449513	-0.035581	 1.264401	-178.831800	-3.976773	 2.023055	 27.609210	-9.272885	 171.797900	-10.582280	-32.313160	-6.010948	-23.283900	 80.494220	 16.396010	-2.385833	 28.452760	 0.000004	 7.652307	-5.566944	-177.383100	 3.873917	-28.400930	 1.118823	 26.999440	 75.395220	-14.629490	 2.384659	 28.388700	-0.000001	-2.851362	 9.537207	-2.994188	-1.069259	 2.055972	-0.968263	-0.448761	-4.027217	 2.474792	-91.776150	 78.527400	 180.000000	-40.037570	 26.408280	 31.941350	-3.249436	-2.681053	-115.240200	-0.523642	-12.666230	-2.105569	-4.130319	 21.525730	 0.991547	-5.167930	 0.731704	 3.519349	-1.378229	 35.397820	-2.634230	-3.106891	 0.987236	 2.233128	-15.269480	-28.104140	-16.464050	 89.782180	 78.203890	 179.999900	 16.245700	 19.616610	-18.060120	-2.555106	-10.797590	 108.066800	 32.100580	 35.865260	 36.732270	 5.716227	 19.173190	-3.685159	 5.027444	 0.246877	-9.377972	-2.350882	 35.473990	 5.254307
-0.450396	-0.036526	 1.261844	-178.520100	-3.792176	 1.997708	 26.581870	-10.919210	 171.921100	-11.370710	-36.787820	-7.212380	-37.374670	 82.709190	 30.741090	-2.385833	 28.452760	 0.000004	 7.500944	-7.565397	-176.062400	 4.146785	-32.371070	 1.405666	 33.879220	 76.598230	-22.097600	 2.384659	 28.388700	-0.000001	-3.823251	 9.362803	-2.861454	-1.662575	 2.514851	-1.345451	-0.443746	-4.172272	 2.749741	-91.776180	 78.527430	-180.000000	-21.939210	 44.113770	 18.368640	-3.734549	-2.403414	-126.050500	-0.516793	-12.613950	-2.110109	-4.130319	 21.525730	 0.991547	-5.167930	 0.731704	 3.519349	-1.378229	 35.397820	-2.634230	-3.068783	 0.750730	 1.995776	-15.176470	-27.800980	-16.044270	 89.782040	 78.203920	-180.000000	 0.983639	 35.623340	-1.999664	-1.662366	-9.532125	 114.871500	 22.989650	 21.066580	 21.265350	 5.716227	 19.173190	-3.685159	 5.027444	 0.246877	-9.377972	-2.350882	 35.473990	 5.254307
